<svg width="19" height="18" viewBox="0 0 19 18" fill="none" xmlns="http://www.w3.org/2000/svg">
<path d="M6.31844 10.2275C4.73103 10.3645 3.25824 10.9023 2.00174 11.7391C0.366529 12.8282 1.47071 14.9287 3.4354 14.9287H6.31844" stroke="#513833" stroke-width="2" stroke-linecap="round"/>
<path d="M9.49072 13.0765C9.49072 10.7781 10.1335 9.79317 10.4549 9.46484H16.24C16.5614 9.79317 17.2042 10.7781 17.2042 13.0765C17.2042 15.703 14.6719 16.6718 13.3863 17.0002C12.1007 16.6718 9.49072 15.703 9.49072 13.0765Z" stroke="#513833" stroke-width="2" stroke-linecap="round" stroke-linejoin="round"/>
<path d="M7.12665 7.68591C8.97292 7.68591 10.4696 6.18922 10.4696 4.34296C10.4696 2.49669 8.97292 1 7.12665 1C5.28039 1 3.78369 2.49669 3.78369 4.34296C3.78369 6.18922 5.28039 7.68591 7.12665 7.68591Z" stroke="#513833" stroke-width="2" stroke-linecap="round" stroke-linejoin="round"/>
</svg>
