<?xml version="1.0" ?><!DOCTYPE svg  PUBLIC '-//W3C//DTD SVG 1.1//EN'  'http://www.w3.org/Graphics/SVG/1.1/DTD/svg11.dtd'><svg height="100%" style="fill-rule:evenodd;clip-rule:evenodd;stroke-linejoin:round;stroke-miterlimit:2;" version="1.1" viewBox="0 0 512 512" width="100%" xml:space="preserve" xmlns="http://www.w3.org/2000/svg" xmlns:serif="http://www.serif.com/" xmlns:xlink="http://www.w3.org/1999/xlink"><g transform="matrix(1.00328,0,0,1.00328,-0.293198,79.4543)"><g transform="matrix(1,0,0,1,1,3)"><path d="M227.718,172.704C229.15,173.318 225.754,162.854 225.754,162.854C225.754,162.854 248.64,185.815 250.32,187.416C264.382,200.817 272.008,219.31 272.008,240.612C272.008,291.069 232.309,327.266 175.477,327.266L32.273,327.266L5.273,300.266L32.273,38.552L213.063,33.462L237.66,58.279C237.66,58.279 238.386,58.931 238.744,59.252C252.518,71.586 262.297,89.4 262.297,112.609C262.297,140.681 250.164,159.668 227.718,172.704M89.361,199.8L89.361,278.182L174.618,278.182C197.015,278.182 211.777,259.493 211.403,237.1C211.042,215.464 195.57,199.628 173.931,199.628L89.361,199.8ZM89.361,88.751L89.361,152.899L169.583,152.899C190.657,152.899 204.546,137.604 204.195,119.277C203.855,101.571 189.297,88.61 168.936,88.61L89.361,88.751Z" style="fill:white;stroke:black;stroke-width:10.17px;stroke-linecap:round;stroke-miterlimit:3;"/></g><g transform="matrix(2.88823,0,0,2.88823,-294.638,125.45)"><path d="M169.433,58.488L178.595,67.917" style="fill:none;stroke:black;stroke-width:3.53px;stroke-linecap:round;stroke-linejoin:miter;stroke-miterlimit:5;"/></g><g transform="matrix(2.88823,0,0,2.88823,-455.781,134.865)"><path d="M169.234,58.306L178.638,67.654" style="fill:none;stroke:black;stroke-width:3.53px;stroke-linecap:round;stroke-linejoin:miter;stroke-miterlimit:5;"/></g><g transform="matrix(2.88823,0,0,2.88823,-427.781,134.865)"><path d="M169.256,58.306L178.359,67.654" style="fill:none;stroke:black;stroke-width:3.53px;stroke-linecap:round;stroke-linejoin:miter;stroke-miterlimit:5;"/></g><g transform="matrix(2.88823,0,0,2.88823,-399.781,134.865)"><path d="M169.256,58.306L178.359,67.654" style="fill:none;stroke:black;stroke-width:3.53px;stroke-linecap:round;stroke-linejoin:miter;stroke-miterlimit:5;"/></g><g transform="matrix(2.88823,0,0,2.88823,-371.781,134.865)"><path d="M169.256,58.306L178.34,67.654" style="fill:none;stroke:black;stroke-width:3.53px;stroke-linecap:round;stroke-linejoin:miter;stroke-miterlimit:5;"/></g><g transform="matrix(2.88823,0,0,2.88823,-343.185,134.865)"><path d="M169.234,58.306L178.341,67.654" style="fill:none;stroke:black;stroke-width:3.53px;stroke-linecap:round;stroke-linejoin:miter;stroke-miterlimit:5;"/></g><g transform="matrix(2.88823,0,0,2.88823,-318.638,132.45)"><path d="M169.842,58.909L178.607,67.902" style="fill:none;stroke:black;stroke-width:3.53px;stroke-linecap:round;stroke-linejoin:miter;stroke-miterlimit:5;"/></g><g transform="matrix(2.88823,0,0,2.88823,-276.638,112.45)"><path d="M169.947,59.019L179.145,68.483" style="fill:none;stroke:black;stroke-width:3.53px;stroke-linecap:round;stroke-linejoin:miter;stroke-miterlimit:5;"/></g><g transform="matrix(2.88823,0,0,2.88823,-257.638,97.45)"><path d="M169.155,58.202L178.399,67.695" style="fill:none;stroke:black;stroke-width:3.53px;stroke-linecap:round;stroke-linejoin:miter;stroke-miterlimit:5;"/></g><g transform="matrix(2.88823,0,0,2.88823,-246.638,76.45)"><path d="M169.066,58.113L178.352,67.647" style="fill:none;stroke:black;stroke-width:3.53px;stroke-linecap:round;stroke-linejoin:miter;stroke-miterlimit:5;"/></g><g transform="matrix(2.88823,0,0,2.88823,-242.638,51.45)"><path d="M169.185,58.257L178.509,67.804" style="fill:none;stroke:black;stroke-width:3.53px;stroke-linecap:round;stroke-linejoin:miter;stroke-miterlimit:5;"/></g><g transform="matrix(2.88823,0,0,2.88823,-245.638,23.45)"><path d="M168.737,57.809L178.202,67.497" style="fill:none;stroke:black;stroke-width:3.53px;stroke-linecap:round;stroke-linejoin:miter;stroke-miterlimit:5;"/></g><g transform="matrix(2.88823,0,0,2.88823,-424.638,7.45002)"><path d="M169.275,58.347L178.37,67.665" style="fill:none;stroke:black;stroke-width:3.53px;stroke-linecap:round;stroke-linejoin:miter;stroke-miterlimit:5;"/></g><g transform="matrix(2.88823,0,0,2.88823,-395.638,7.45002)"><path d="M169.218,58.267L178.282,67.577" style="fill:none;stroke:black;stroke-width:3.53px;stroke-linecap:round;stroke-linejoin:miter;stroke-miterlimit:5;"/></g><g transform="matrix(2.88823,0,0,2.88823,-366.638,7.45002)"><path d="M169.275,58.347L178.266,67.577" style="fill:none;stroke:black;stroke-width:3.53px;stroke-linecap:round;stroke-linejoin:miter;stroke-miterlimit:5;"/></g><g transform="matrix(2.88823,0,0,2.88823,-337.638,6.45002)"><path d="M170,59.072L178.601,67.923" style="fill:none;stroke:black;stroke-width:3.53px;stroke-linecap:round;stroke-linejoin:miter;stroke-miterlimit:5;"/></g><g transform="matrix(2.88823,0,0,2.88823,-425.638,-105.55)"><path d="M170,59.072L178.716,68.011" style="fill:none;stroke:black;stroke-width:3.53px;stroke-linecap:round;stroke-linejoin:miter;stroke-miterlimit:5;"/></g><g transform="matrix(2.88823,0,0,2.88823,-394.638,-103.55)"><path d="M169.181,58.253L178.024,67.319" style="fill:none;stroke:black;stroke-width:3.53px;stroke-linecap:round;stroke-linejoin:miter;stroke-miterlimit:5;"/></g><g transform="matrix(2.88823,0,0,2.88823,-425.638,-75.55)"><path d="M169.308,58.379L178.707,68.03" style="fill:none;stroke:black;stroke-width:3.53px;stroke-linecap:round;stroke-linejoin:miter;stroke-miterlimit:5;"/></g><g transform="matrix(2.88823,0,0,2.88823,-425.638,-45.55)"><path d="M169.308,58.379L177.667,66.962" style="fill:none;stroke:black;stroke-width:3.53px;stroke-linecap:round;stroke-linejoin:miter;stroke-miterlimit:5;"/></g><g transform="matrix(2.88823,0,0,2.88823,-269.638,-34.55)"><path d="M169.47,58.526L178.534,67.854" style="fill:none;stroke:black;stroke-width:3.53px;stroke-linecap:round;stroke-linejoin:miter;stroke-miterlimit:5;"/></g><g transform="matrix(2.88823,0,0,2.88823,-256.638,-52.55)"><path d="M169.091,58.136L178.369,67.664" style="fill:none;stroke:black;stroke-width:3.53px;stroke-linecap:round;stroke-linejoin:miter;stroke-miterlimit:5;"/></g><g transform="matrix(2.88823,0,0,2.88823,-251.638,-76.55)"><path d="M168.93,57.971L178.271,67.566" style="fill:none;stroke:black;stroke-width:3.53px;stroke-linecap:round;stroke-linejoin:miter;stroke-miterlimit:5;"/></g><g transform="matrix(2.88823,0,0,2.88823,-255.638,-105.55)"><path d="M168.422,57.448L178.023,67.328" style="fill:none;stroke:black;stroke-width:3.53px;stroke-linecap:round;stroke-linejoin:miter;stroke-miterlimit:5;"/></g><g transform="matrix(2.88823,0,0,2.88823,-364.638,-103.55)"><path d="M169.186,58.234L178.288,67.583" style="fill:none;stroke:black;stroke-width:3.53px;stroke-linecap:round;stroke-linejoin:miter;stroke-miterlimit:5;"/></g><g transform="matrix(2.88823,0,0,2.88823,-337.638,-103.55)"><path d="M169.451,58.523L178.259,67.571" style="fill:none;stroke:black;stroke-width:3.53px;stroke-linecap:round;stroke-linejoin:miter;stroke-miterlimit:5;"/></g><g transform="matrix(2.88823,0,0,2.88823,-424.638,35.45)"><path d="M170,59.072L177.667,66.962" style="fill:none;stroke:black;stroke-width:3.53px;stroke-linecap:round;stroke-linejoin:miter;stroke-miterlimit:5;"/></g><g transform="matrix(2.88823,0,0,2.88823,-425.638,63.45)"><path d="M170,59.072L177.667,66.962" style="fill:none;stroke:black;stroke-width:3.53px;stroke-linecap:round;stroke-linejoin:miter;stroke-miterlimit:5;"/></g><g transform="matrix(1.43077,0,0,1.43077,-123.927,-203.01)"><path d="M91,152.06L198.274,152.06C221.176,152.06 251.77,169.5 251.77,203.821C251.77,223.44 243.29,236.711 227.601,245.822C247.4,254.312 258.557,271.743 258.557,293.285C258.557,328.551 230.81,353.849 191.089,353.849L91,353.849L91,152.06ZM130.9,264.76L130.9,319.543L190.489,319.543C206.143,319.543 216.46,306.481 216.199,290.83C215.946,275.708 205.132,264.64 190.008,264.64L130.9,264.76ZM130.9,187.145L130.9,231.98L186.97,231.98C201.699,231.98 211.407,221.29 211.161,208.481C210.923,196.105 200.748,187.047 186.517,187.047L130.9,187.145Z" style="fill:white;stroke:black;stroke-width:7.11px;stroke-linecap:round;stroke-miterlimit:3;"/></g></g><g transform="matrix(1.00328,0,0,1.00328,-0.293198,79.4543)"><g transform="matrix(1.43077,0,0,1.43077,-100.927,-177.01)"><path d="M389.535,161.536L373.459,143.364L286.359,167.872L302.434,186.044L389.535,186.044L389.535,161.536Z" style="fill:white;stroke:black;stroke-width:7.11px;stroke-linecap:round;stroke-miterlimit:3;"/></g><g transform="matrix(2.88823,0,0,2.88823,-58.5024,-107.193)"><path d="M170,59.072L178.278,67.574" style="fill:none;stroke:black;stroke-width:3.53px;stroke-linecap:round;stroke-linejoin:miter;stroke-miterlimit:5;"/></g><g transform="matrix(2.88823,0,0,2.88823,-82.5024,-106.193)"><path d="M169.569,58.641L178.348,67.643" style="fill:none;stroke:black;stroke-width:3.53px;stroke-linecap:round;stroke-linejoin:miter;stroke-miterlimit:5;"/></g><g transform="matrix(2.88823,0,0,2.88823,-108.502,-106.193)"><path d="M169.581,58.641L178.348,67.643" style="fill:none;stroke:black;stroke-width:3.53px;stroke-linecap:round;stroke-linejoin:miter;stroke-miterlimit:5;"/></g><g transform="matrix(2.88823,0,0,2.88823,-134.502,-106.193)"><path d="M169.569,58.641L177.667,66.962" style="fill:none;stroke:black;stroke-width:3.53px;stroke-linecap:round;stroke-linejoin:miter;stroke-miterlimit:5;"/></g><g transform="matrix(2.88823,0,0,2.88823,-159.502,-106.193)"><path d="M169.569,58.641L177.822,67.117" style="fill:none;stroke:black;stroke-width:3.53px;stroke-linecap:round;stroke-linejoin:miter;stroke-miterlimit:5;"/></g><g transform="matrix(1.43077,0,0,1.43077,-123.927,-203.01)"><rect height="24.508" style="fill:white;stroke:black;stroke-width:7.11px;stroke-linecap:round;stroke-miterlimit:3;" width="87.1" x="302.434" y="161.536"/></g></g><g transform="matrix(1.00328,0,0,1.00328,-0.293198,79.4543)"><g transform="matrix(1.43077,0,0,1.43077,-97.8522,-175.904)"><path d="M310.74,290.22L421,290.22C422.035,258.691 414.76,234.452 398.763,219.32C398.416,218.991 397.708,218.347 397.708,218.347L382.053,201.861C361.83,180.784 245.706,204.867 271.741,278.826C273.842,284.795 271.66,316.45 271.66,316.45L294.453,340.068C294.453,340.068 294.982,340.55 295.249,340.788C308.763,352.817 327.186,358.751 348.065,358.751C387.208,358.257 409.929,341.34 419.037,310.811L400.728,292.148C396.439,303.636 361.64,327.931 348.306,327.931C325.467,327.931 312.505,315.171 310.74,290.22ZM312.075,264.597L380.41,264.597C378.145,244.737 367.376,232.208 346.416,232.208C325.456,232.208 313.513,247.6 312.075,264.597Z" style="fill:white;stroke:black;stroke-width:7.11px;stroke-linecap:round;stroke-miterlimit:3;"/></g><g transform="matrix(2.88823,0,0,2.88823,-13.5024,41.8073)"><path d="M170,59.072L179.095,68.39" style="fill:none;stroke:black;stroke-width:3.53px;stroke-linecap:round;stroke-linejoin:miter;stroke-miterlimit:5;"/></g><g transform="matrix(2.88823,0,0,2.88823,-23.5024,94.8073)"><path d="M169.564,58.623L178.626,67.949" style="fill:none;stroke:black;stroke-width:3.53px;stroke-linecap:round;stroke-linejoin:miter;stroke-miterlimit:5;"/></g><g transform="matrix(2.88823,0,0,2.88823,-36.5024,111.807)"><path d="M169.655,58.718L178.744,68.04" style="fill:none;stroke:black;stroke-width:3.53px;stroke-linecap:round;stroke-linejoin:miter;stroke-miterlimit:5;"/></g><g transform="matrix(2.88823,0,0,2.88823,-53.5024,125.807)"><path d="M169.56,58.631L178.671,67.966" style="fill:none;stroke:black;stroke-width:3.53px;stroke-linecap:round;stroke-linejoin:miter;stroke-miterlimit:5;"/></g><g transform="matrix(2.88823,0,0,2.88823,-73.5024,134.807)"><path d="M169.55,58.609L178.67,67.965" style="fill:none;stroke:black;stroke-width:3.53px;stroke-linecap:round;stroke-linejoin:miter;stroke-miterlimit:5;"/></g><g transform="matrix(2.88823,0,0,2.88823,-98.5024,139.807)"><path d="M170,59.072L178.74,68.036" style="fill:none;stroke:black;stroke-width:3.53px;stroke-linecap:round;stroke-linejoin:miter;stroke-miterlimit:5;"/></g><g transform="matrix(2.88823,0,0,2.88823,-125.502,139.807)"><path d="M170,59.072L179.03,68.325" style="fill:none;stroke:black;stroke-width:3.53px;stroke-linecap:round;stroke-linejoin:miter;stroke-miterlimit:5;"/></g><g transform="matrix(2.88823,0,0,2.88823,-153.502,136.807)"><path d="M169.043,58.115L178.243,67.553" style="fill:none;stroke:black;stroke-width:3.53px;stroke-linecap:round;stroke-linejoin:miter;stroke-miterlimit:5;"/></g><g transform="matrix(2.88823,0,0,2.88823,-168.502,42.8073)"><path d="M170,59.072L179.007,68.302" style="fill:none;stroke:black;stroke-width:3.53px;stroke-linecap:round;stroke-linejoin:miter;stroke-miterlimit:5;"/></g><g transform="matrix(2.88823,0,0,2.88823,-142.502,43.8073)"><path d="M169.313,58.384L178.334,67.629" style="fill:none;stroke:black;stroke-width:3.53px;stroke-linecap:round;stroke-linejoin:miter;stroke-miterlimit:5;"/></g><g transform="matrix(2.88823,0,0,2.88823,-116.502,43.8073)"><path d="M169.332,58.384L178.402,67.698" style="fill:none;stroke:black;stroke-width:3.53px;stroke-linecap:round;stroke-linejoin:miter;stroke-miterlimit:5;"/></g><g transform="matrix(2.88823,0,0,2.88823,-89.5024,43.8073)"><path d="M169.241,58.313L178.661,67.956" style="fill:none;stroke:black;stroke-width:3.53px;stroke-linecap:round;stroke-linejoin:miter;stroke-miterlimit:5;"/></g><g transform="matrix(2.88823,0,0,2.88823,-62.5024,43.8073)"><path d="M169.313,58.384L178.679,67.975" style="fill:none;stroke:black;stroke-width:3.53px;stroke-linecap:round;stroke-linejoin:miter;stroke-miterlimit:5;"/></g><g transform="matrix(2.88823,0,0,2.88823,-37.5024,43.8073)"><path d="M169.313,58.384L178.679,67.975" style="fill:none;stroke:black;stroke-width:3.53px;stroke-linecap:round;stroke-linejoin:miter;stroke-miterlimit:5;"/></g><g transform="matrix(2.88823,0,0,2.88823,-11.5024,16.8073)"><path d="M169.422,58.494L178.438,67.733" style="fill:none;stroke:black;stroke-width:3.53px;stroke-linecap:round;stroke-linejoin:miter;stroke-miterlimit:5;"/></g><g transform="matrix(2.88823,0,0,2.88823,-16.5024,-12.1927)"><path d="M169.297,58.349L178.412,67.729" style="fill:none;stroke:black;stroke-width:3.53px;stroke-linecap:round;stroke-linejoin:miter;stroke-miterlimit:5;"/></g><g transform="matrix(2.88823,0,0,2.88823,-158.502,-12.1927)"><path d="M168.663,57.695L177.667,66.962" style="fill:none;stroke:black;stroke-width:3.53px;stroke-linecap:round;stroke-linejoin:miter;stroke-miterlimit:5;"/></g><g transform="matrix(2.88823,0,0,2.88823,-144.502,-29.1927)"><path d="M168.774,57.845L177.667,66.962" style="fill:none;stroke:black;stroke-width:3.53px;stroke-linecap:round;stroke-linejoin:miter;stroke-miterlimit:5;"/></g><g transform="matrix(2.88823,0,0,2.88823,-124.502,-39.1927)"><path d="M169.399,58.455L178.314,67.61" style="fill:none;stroke:black;stroke-width:3.53px;stroke-linecap:round;stroke-linejoin:miter;stroke-miterlimit:5;"/></g><g transform="matrix(2.88823,0,0,2.88823,-96.5024,-39.1927)"><path d="M170,59.072L177.667,66.962" style="fill:none;stroke:black;stroke-width:3.53px;stroke-linecap:round;stroke-linejoin:miter;stroke-miterlimit:5;"/></g><g transform="matrix(1.43077,0,0,1.43077,-123.927,-203.01)"><path d="M310.74,290.22L421,290.22C422.834,234.368 398.588,201.393 345.984,201.393C299.617,201.393 272.18,232.46 271.741,278.826C271.231,332.604 304.239,358.751 348.065,358.751C387.208,358.257 409.929,341.34 419.037,310.811L378.791,310.811C374.502,322.299 361.64,327.931 348.306,327.931C325.467,327.931 312.505,315.171 310.74,290.22ZM312.075,264.597L380.41,264.597C378.145,244.737 367.376,232.208 346.416,232.208C325.456,232.208 313.513,247.6 312.075,264.597Z" style="fill:white;stroke:black;stroke-width:7.11px;stroke-linecap:round;stroke-miterlimit:3;"/></g></g></svg>