<svg width="64" height="64" viewBox="0 0 64 64" fill="none" xmlns="http://www.w3.org/2000/svg">
<path fill-rule="evenodd" clip-rule="evenodd" d="M32 2.66669C15.8 2.66669 2.66663 15.8 2.66663 32C2.66663 48.2 15.8 61.3334 32 61.3334C48.2 61.3334 61.3333 48.2 61.3333 32C61.3333 15.8 48.2 2.66669 32 2.66669ZM34.6666 42.6667C34.6666 43.3739 34.3857 44.0522 33.8856 44.5523C33.3855 45.0524 32.7072 45.3334 32 45.3334C31.2927 45.3334 30.6144 45.0524 30.1143 44.5523C29.6142 44.0522 29.3333 43.3739 29.3333 42.6667V34.6667H21.3333C20.626 34.6667 19.9478 34.3857 19.4477 33.8856C18.9476 33.3855 18.6666 32.7073 18.6666 32C18.6666 31.2928 18.9476 30.6145 19.4477 30.1144C19.9478 29.6143 20.626 29.3334 21.3333 29.3334H29.3333V21.3334C29.3333 20.6261 29.6142 19.9478 30.1143 19.4477C30.6144 18.9476 31.2927 18.6667 32 18.6667C32.7072 18.6667 33.3855 18.9476 33.8856 19.4477C34.3857 19.9478 34.6666 20.6261 34.6666 21.3334V29.3334H42.6666C43.3739 29.3334 44.0522 29.6143 44.5522 30.1144C45.0523 30.6145 45.3333 31.2928 45.3333 32C45.3333 32.7073 45.0523 33.3855 44.5522 33.8856C44.0522 34.3857 43.3739 34.6667 42.6666 34.6667H34.6666V42.6667Z" fill="url(#paint0_linear_11_55)"/>
<defs>
<linearGradient id="paint0_linear_11_55" x1="2.66663" y1="32" x2="61.3333" y2="32" gradientUnits="userSpaceOnUse">
<stop stop-color="#2AF598"/>
<stop offset="1" stop-color="#009EFD"/>
</linearGradient>
</defs>
</svg>
