<svg width="32" height="32" viewBox="0 0 32 32" fill="none" xmlns="http://www.w3.org/2000/svg">
<g clip-path="url(#clip0_19968_250)">
<rect width="32" height="32" rx="4" fill="white"/>
<path d="M4.48363 27.5164L6.16077 21.3669C5.2663 19.6897 4.70726 17.789 4.70726 15.8882C4.70726 9.62689 9.85047 4.48364 16.1118 4.48364C22.3731 4.48364 27.5164 9.62689 27.5164 15.8882C27.5164 22.1495 22.3731 27.2928 16.1118 27.2928C14.211 27.2928 12.4221 26.8455 10.745 25.9511L4.48363 27.5164ZM10.9686 23.6031L11.304 23.8267C12.7575 24.7212 14.3228 25.1684 16 25.1684C21.0314 25.1684 25.1684 21.0315 25.1684 16C25.1684 10.9686 21.0314 6.83165 16 6.83165C10.9686 6.83165 6.83163 10.9686 6.83163 16C6.83163 17.6772 7.27885 19.3543 8.17333 20.8078L8.39696 21.255L7.5025 24.7211L10.9686 23.6031Z" fill="#163152"/>
<path fill-rule="evenodd" clip-rule="evenodd" d="M20.2485 17.4551C19.8013 17.1197 19.1304 16.8961 18.5714 17.1197C18.1241 17.3434 17.9005 17.9024 17.5651 18.2378C17.4533 18.4614 17.2297 18.4615 17.0061 18.3496C15.4407 17.6788 14.2108 16.6725 13.3163 15.219C13.2045 14.9953 13.2045 14.7717 13.4281 14.5481C13.6518 14.2127 13.9872 13.8772 14.099 13.43C14.2108 12.9828 13.9872 12.5356 13.7636 12.2001C13.5399 11.7529 13.3163 11.082 12.8691 10.7466C12.4219 10.523 11.8628 10.6348 11.4156 10.9702C10.7447 11.5293 10.4093 12.4237 10.4093 13.2064C10.4093 13.43 10.4093 13.6536 10.5211 13.8773C10.6329 14.4363 10.9683 14.9954 11.192 15.4426C11.4156 15.778 11.6392 16.2253 11.8628 16.5607C12.7573 17.6788 13.7636 18.6851 14.9935 19.4677C15.5525 19.8032 16.2234 20.1386 16.8942 20.3622C17.6769 20.5858 18.3478 20.9212 19.1304 20.6976C20.0249 20.5858 20.8076 20.0268 21.143 19.1323C21.2548 18.9087 21.2548 18.5733 21.2548 18.3496C21.3666 18.0142 20.6958 17.7906 20.2485 17.4551Z" fill="#163152"/>
</g>
<defs>
<clipPath id="clip0_19968_250">
<rect width="32" height="32" fill="white"/>
</clipPath>
</defs>
</svg>
