<svg width="18" height="18" viewBox="0 0 18 18" fill="none" xmlns="http://www.w3.org/2000/svg">
<path d="M3.76917 12.0769C4.34041 12.0769 4.88825 11.85 5.29217 11.4461C5.6961 11.0422 5.92302 10.4943 5.92302 9.92309V8.07693C5.92302 7.50569 6.14995 6.95786 6.55388 6.55393C6.9578 6.15001 7.50564 5.92309 8.07687 5.92309C8.64811 5.92309 9.19594 5.69616 9.59987 5.29224C10.0038 4.88831 10.2307 4.34047 10.2307 3.76924V1.09408C9.82955 1.03214 9.41853 1 9.00001 1C4.58172 1 1 4.58174 1 9.00001C1 10.0903 1.21813 11.1297 1.61313 12.0769H3.76917Z" stroke="#513833" stroke-width="2" stroke-linecap="round" stroke-linejoin="round"/>
<path d="M16.9988 8.87648C16.3828 8.557 15.6997 8.3884 15.0057 8.38458H12.3842C11.813 8.38458 11.2651 8.6115 10.8612 9.01543C10.4573 9.41935 10.2303 9.9672 10.2303 10.5384C10.2303 11.1097 10.4573 11.6575 10.8612 12.0615C11.2651 12.4654 11.813 12.6923 12.3842 12.6923C12.7922 12.6923 13.1835 12.8544 13.4721 13.1429C13.7605 13.4314 13.9226 13.8227 13.9226 14.2308V15.3015H13.9288C15.7868 13.8462 16.9848 11.5871 16.9996 9.04756V8.95239C16.9995 8.92706 16.9992 8.90176 16.9988 8.87648Z" stroke="#513833" stroke-width="2" stroke-linecap="round" stroke-linejoin="round"/>
<path d="M9 17C13.4183 17 17 13.4182 17 9.00001C17 4.58174 13.4183 1 9 1C4.58173 1 1 4.58174 1 9.00001C1 13.4182 4.58173 17 9 17Z" stroke="#513833" stroke-width="2" stroke-linecap="round" stroke-linejoin="round"/>
</svg>
