<svg id="svg" version="1.1" xmlns="http://www.w3.org/2000/svg" xmlns:xlink="http://www.w3.org/1999/xlink" width="400" height="88.45589216602161" viewBox="0, 0, 400,88.45589216602161"><g id="svgg"><path id="path0" d="M37.593 6.493 C 35.689 7.899,35.104 8.049,31.352 8.105 C 28.021 8.154,27.375 8.058,26.660 7.410 C 26.343 7.124,8.856 7.040,8.115 7.321 C 7.701 7.479,7.655 7.634,7.253 10.193 C 7.200 10.528,7.281 11.391,7.432 12.110 C 7.739 13.574,7.757 14.699,7.511 17.203 C 7.418 18.145,7.302 19.404,7.252 20.000 C 7.203 20.596,7.110 21.571,7.047 22.167 C 6.897 23.588,6.885 28.588,7.030 29.333 C 7.165 30.022,7.197 30.154,7.687 32.000 C 8.063 33.418,8.152 35.422,7.993 38.917 C 7.939 40.126,8.091 40.557,9.187 42.289 C 10.017 43.602,9.457 45.206,7.755 46.390 L 7.314 46.697 7.430 50.390 C 7.561 54.528,7.562 54.534,8.542 55.700 L 9.250 56.541 9.200 59.062 C 9.130 62.624,8.947 64.111,8.511 64.647 C 7.376 66.042,7.291 66.867,7.563 73.833 C 7.655 76.197,7.644 77.665,7.531 78.146 C 7.250 79.341,7.623 79.779,9.184 80.089 C 11.361 80.522,13.119 80.557,16.833 80.242 C 17.246 80.207,18.108 80.134,18.750 80.079 C 20.303 79.947,21.828 79.960,22.976 80.115 C 24.005 80.253,27.552 80.284,29.917 80.174 C 34.160 79.977,37.289 80.796,39.196 82.603 C 40.241 83.593,40.378 83.644,40.768 83.184 C 42.067 81.652,42.510 81.525,44.333 82.167 C 44.837 82.344,45.596 82.492,46.019 82.495 C 46.544 82.498,46.931 82.612,47.237 82.853 C 47.702 83.219,48.629 83.210,49.299 82.834 C 50.671 82.062,51.598 81.943,57.167 81.825 C 60.146 81.761,62.797 81.660,63.059 81.598 C 65.628 80.998,65.692 80.990,66.634 81.156 C 68.737 81.527,69.225 81.585,72.232 81.827 C 75.318 82.075,76.007 81.836,76.154 80.464 C 76.199 80.046,78.928 79.780,80.250 80.064 C 81.317 80.293,81.698 80.401,82.790 80.786 C 84.679 81.450,84.496 83.062,84.496 65.704 C 84.496 49.207,84.562 50.177,83.438 50.150 C 81.974 50.115,81.372 49.617,82.299 49.208 C 83.184 48.817,83.333 48.172,83.333 44.727 C 83.333 41.012,83.166 40.199,81.970 38.111 C 80.984 36.389,80.963 35.815,81.849 34.901 C 82.284 34.451,82.356 34.274,82.260 33.886 C 81.979 32.760,82.035 32.608,82.897 32.166 C 84.348 31.420,84.202 33.684,84.095 13.612 L 84.070 8.974 83.493 8.464 C 82.401 7.498,81.643 7.270,79.083 7.143 C 77.800 7.079,76.375 6.978,75.917 6.918 C 75.038 6.804,74.676 7.005,74.005 7.978 C 73.668 8.467,73.548 8.428,73.210 7.723 C 72.594 6.440,72.879 6.481,61.723 6.067 L 58.696 5.955 58.292 6.360 C 58.059 6.593,57.840 7.061,57.775 7.463 C 57.625 8.404,57.236 8.617,55.409 8.756 L 53.902 8.871 53.429 8.251 C 52.877 7.528,52.130 7.171,51.130 7.155 C 49.974 7.136,49.790 7.010,50.086 6.438 C 50.222 6.176,50.333 5.895,50.333 5.814 C 50.333 5.731,47.785 5.667,44.523 5.667 L 38.712 5.667 37.593 6.493 M22.932 19.323 C 23.474 19.684,24.537 20.434,25.294 20.990 C 26.052 21.545,26.714 22.000,26.766 22.000 C 26.818 22.000,27.676 22.639,28.671 23.420 C 29.667 24.202,31.555 25.487,32.866 26.276 C 35.815 28.053,40.564 31.154,40.639 31.352 C 40.669 31.434,40.771 31.500,40.865 31.500 C 40.959 31.500,41.309 31.713,41.643 31.973 C 41.977 32.233,43.413 33.231,44.833 34.192 C 46.254 35.152,48.354 36.577,49.500 37.357 C 51.885 38.981,56.415 42.044,61.250 45.303 C 63.083 46.538,65.183 47.979,65.917 48.505 C 66.650 49.031,67.976 49.807,68.864 50.230 C 69.752 50.653,70.817 51.280,71.230 51.624 C 71.644 51.968,72.450 52.587,73.022 53.000 C 73.594 53.413,74.395 54.067,74.802 54.455 L 75.542 55.160 75.445 56.122 C 75.322 57.333,75.109 58.436,74.657 60.197 C 74.462 60.959,74.277 61.708,74.247 61.860 C 74.216 62.012,73.855 63.212,73.443 64.526 C 73.031 65.841,72.642 67.104,72.578 67.333 C 72.309 68.295,71.447 69.185,70.250 69.736 C 69.160 70.237,63.167 70.532,63.167 70.084 C 63.167 69.946,63.242 69.833,63.333 69.833 C 63.425 69.833,63.500 69.762,63.500 69.675 C 63.500 69.584,63.187 69.610,62.765 69.737 L 62.031 69.958 61.140 69.046 C 60.651 68.544,59.313 67.335,58.167 66.359 C 54.814 63.503,53.513 62.067,50.667 58.087 C 50.163 57.382,48.850 55.929,47.750 54.857 C 45.726 52.886,40.238 47.290,37.333 44.237 C 36.462 43.321,34.397 41.150,32.743 39.411 C 31.090 37.672,28.577 35.012,27.160 33.500 C 25.743 31.988,23.567 29.700,22.325 28.417 C 21.083 27.133,19.195 25.183,18.130 24.083 C 16.090 21.977,14.902 20.542,15.064 20.380 C 15.117 20.327,16.306 19.925,17.705 19.486 C 20.992 18.457,21.605 18.437,22.932 19.323 M65.567 19.237 C 66.415 19.492,68.835 21.029,69.476 21.719 C 70.207 22.506,69.944 25.666,68.579 32.531 C 68.400 33.432,67.967 33.669,67.101 33.340 C 66.687 33.183,62.529 30.273,61.904 29.703 C 61.727 29.542,61.385 29.262,61.144 29.081 C 57.985 26.706,52.668 22.411,52.715 22.271 C 52.811 21.984,54.183 21.518,57.500 20.648 C 59.196 20.203,61.221 19.657,62.000 19.435 C 63.665 18.959,64.492 18.913,65.567 19.237 M24.036 54.782 C 25.529 56.220,28.025 58.646,29.583 60.172 C 31.142 61.699,32.726 63.167,33.105 63.435 C 34.478 64.407,37.017 66.885,36.966 67.203 C 36.919 67.493,35.056 68.251,32.300 69.100 C 31.869 69.233,31.287 69.534,31.008 69.769 C 30.729 70.003,30.294 70.225,30.042 70.261 C 22.769 71.295,22.958 71.322,20.115 68.829 C 19.273 68.090,18.121 67.170,17.556 66.785 C 16.192 65.853,15.464 64.351,16.167 63.917 C 16.258 63.860,16.333 63.700,16.333 63.561 C 16.333 63.422,16.589 62.695,16.901 61.946 C 17.213 61.196,17.824 59.721,18.259 58.667 C 18.694 57.612,19.255 56.300,19.506 55.750 C 19.756 55.200,20.214 54.169,20.523 53.459 C 20.831 52.748,21.137 52.167,21.203 52.167 C 21.269 52.167,22.544 53.343,24.036 54.782 " stroke="none" fill="#bc2c1c" fill-rule="evenodd"></path><path id="path1" d="M62.294 6.118 C 62.501 6.158,62.801 6.156,62.960 6.115 C 63.120 6.073,62.950 6.040,62.583 6.042 C 62.217 6.044,62.086 6.078,62.294 6.118 M66.542 6.282 C 66.702 6.323,66.965 6.323,67.125 6.282 C 67.285 6.240,67.154 6.205,66.833 6.205 C 66.512 6.205,66.381 6.240,66.542 6.282 M70.375 6.448 C 70.535 6.490,70.798 6.490,70.958 6.448 C 71.119 6.406,70.987 6.372,70.667 6.372 C 70.346 6.372,70.215 6.406,70.375 6.448 M73.172 7.553 C 73.162 7.824,73.517 8.333,73.714 8.331 C 73.854 8.329,73.860 8.290,73.736 8.206 C 73.636 8.138,73.470 7.933,73.366 7.750 C 73.262 7.567,73.175 7.478,73.172 7.553 M84.045 15.167 C 84.045 15.579,84.078 15.748,84.118 15.542 C 84.157 15.335,84.157 14.998,84.118 14.792 C 84.078 14.585,84.045 14.754,84.045 15.167 M308.555 21.206 C 307.881 21.918,308.005 21.650,305.576 27.681 C 304.417 30.560,302.696 34.829,301.752 37.167 C 298.126 46.142,293.778 56.949,293.503 57.667 C 291.292 63.437,290.332 64.502,287.126 64.745 C 285.635 64.859,285.333 64.947,285.333 65.268 C 285.333 65.463,286.548 65.500,292.929 65.500 C 300.073 65.500,300.521 65.483,300.469 65.208 C 300.424 64.974,300.119 64.880,298.905 64.729 C 295.946 64.362,295.820 63.944,297.329 59.500 C 298.666 55.563,297.428 56.000,307.259 56.000 L 315.481 56.000 315.902 56.375 C 316.136 56.584,316.540 57.340,316.814 58.083 C 317.086 58.817,317.660 60.279,318.091 61.333 C 319.017 63.598,319.038 63.856,318.354 64.562 C 317.288 65.662,317.305 65.667,322.292 65.666 C 330.162 65.666,335.477 65.066,331.640 64.611 C 329.208 64.323,327.280 63.033,326.254 61.008 C 325.672 59.860,323.995 56.113,324.046 56.073 C 324.085 56.042,325.607 55.605,328.000 54.938 C 329.349 54.562,331.509 54.143,333.498 53.872 C 334.139 53.785,334.428 53.667,334.464 53.480 C 334.546 53.056,333.854 53.000,328.490 53.000 C 325.658 53.000,323.337 52.930,323.093 52.837 C 322.590 52.646,322.644 52.760,320.528 47.417 C 319.621 45.125,317.372 39.500,315.531 34.917 C 309.377 19.598,309.622 20.079,308.555 21.206 M195.000 21.273 C 190.339 21.699,186.166 23.135,182.508 25.570 C 170.306 33.693,169.943 53.493,181.833 62.341 C 189.711 68.203,203.324 68.123,211.312 62.168 C 222.825 53.584,223.701 33.983,212.930 25.966 C 208.559 22.713,200.974 20.727,195.000 21.273 M372.417 21.409 C 369.554 21.931,366.192 23.120,365.657 23.800 C 365.273 24.288,365.250 25.046,365.509 28.642 C 365.744 31.898,365.929 32.833,366.338 32.833 C 366.668 32.833,366.732 32.670,367.249 30.519 C 368.120 26.893,370.522 24.614,373.942 24.166 C 383.969 22.855,386.949 36.338,379.206 47.980 C 377.963 49.849,373.482 54.620,370.331 57.430 C 368.980 58.634,365.482 61.884,363.882 63.420 C 361.609 65.603,360.419 65.417,376.640 65.417 L 390.306 65.417 390.732 65.017 C 391.231 64.548,391.445 63.862,392.244 60.167 C 393.007 56.636,393.198 54.438,392.735 54.526 C 392.413 54.588,392.175 54.985,391.438 56.696 C 390.526 58.809,388.701 60.047,386.083 60.327 C 384.094 60.540,372.293 60.901,371.755 60.766 C 371.121 60.607,371.160 60.564,373.787 58.500 C 382.639 51.544,388.601 44.487,390.316 38.932 C 393.109 29.891,389.227 22.929,380.549 21.415 C 378.796 21.110,374.080 21.106,372.417 21.409 M236.533 21.771 C 236.371 22.074,236.230 22.777,235.474 27.036 C 235.121 29.023,235.154 30.167,235.563 30.167 C 235.779 30.167,235.901 29.962,236.404 28.749 C 237.273 26.653,238.845 25.851,242.276 25.751 C 243.637 25.712,246.106 25.632,247.763 25.573 C 250.447 25.478,250.806 25.497,251.054 25.745 C 251.356 26.046,251.456 51.899,251.186 59.583 C 251.030 64.015,250.883 64.285,248.366 64.763 C 246.671 65.086,246.500 65.147,246.500 65.428 C 246.500 65.632,247.843 65.667,255.833 65.667 C 263.849 65.667,265.167 65.633,265.167 65.427 C 265.167 65.050,264.939 64.983,263.035 64.802 C 260.377 64.550,259.836 64.196,259.261 62.333 C 258.641 60.327,258.427 26.334,259.031 25.731 C 259.290 25.472,259.658 25.465,263.781 25.643 C 271.089 25.957,272.224 26.410,272.890 29.272 C 273.557 32.139,273.968 31.172,274.206 26.171 C 274.434 21.374,274.606 21.694,271.970 22.018 C 268.829 22.404,243.460 22.347,240.667 21.948 C 237.012 21.425,236.725 21.413,236.533 21.771 M17.417 23.333 C 18.238 24.158,18.947 24.833,18.993 24.833 C 19.039 24.833,18.405 24.158,17.583 23.333 C 16.762 22.508,16.053 21.833,16.007 21.833 C 15.961 21.833,16.595 22.508,17.417 23.333 M108.667 22.413 C 108.667 22.763,109.288 22.979,110.906 23.193 C 112.920 23.460,113.266 23.650,113.798 24.786 L 114.250 25.750 114.297 43.250 C 114.356 65.501,114.535 64.406,110.792 64.753 C 109.697 64.854,109.500 64.919,109.500 65.176 C 109.500 65.653,109.400 65.644,116.932 65.839 C 120.865 65.940,125.350 66.077,126.899 66.144 C 140.379 66.720,148.850 62.945,153.393 54.333 C 155.373 50.581,156.092 47.321,155.950 42.750 C 155.606 31.673,149.611 24.888,138.106 22.552 C 136.073 22.140,108.667 22.010,108.667 22.413 M54.167 23.555 C 54.167 23.601,54.467 23.876,54.833 24.167 C 55.200 24.457,55.500 24.657,55.500 24.611 C 55.500 24.566,55.200 24.290,54.833 24.000 C 54.467 23.710,54.167 23.509,54.167 23.555 M197.613 24.345 C 207.987 25.761,214.009 37.213,211.756 51.240 C 210.588 58.515,206.298 63.092,200.169 63.603 C 187.378 64.670,178.604 51.118,181.912 35.403 C 183.598 27.389,189.495 23.236,197.613 24.345 M69.709 25.083 C 69.711 25.450,69.745 25.580,69.785 25.373 C 69.824 25.166,69.823 24.866,69.781 24.706 C 69.739 24.547,69.707 24.717,69.709 25.083 M55.667 24.722 C 55.667 24.768,55.967 25.043,56.333 25.333 C 56.700 25.624,57.000 25.824,57.000 25.778 C 57.000 25.732,56.700 25.457,56.333 25.167 C 55.967 24.876,55.667 24.676,55.667 24.722 M84.235 27.667 C 84.235 29.271,84.260 29.927,84.291 29.125 C 84.321 28.323,84.321 27.010,84.291 26.208 C 84.260 25.406,84.235 26.063,84.235 27.667 M130.446 25.010 C 141.610 26.524,148.056 34.078,148.073 45.667 C 148.088 55.413,144.440 60.964,136.736 62.924 C 131.277 64.312,123.993 63.475,122.542 61.293 C 121.838 60.236,121.816 59.610,121.868 42.380 C 121.920 25.267,121.910 25.474,122.637 25.189 C 123.568 24.823,128.274 24.716,130.446 25.010 M6.718 26.583 C 6.719 27.133,6.750 27.338,6.787 27.039 C 6.825 26.739,6.824 26.289,6.786 26.039 C 6.748 25.788,6.717 26.033,6.718 26.583 M21.417 27.500 C 22.330 28.417,23.115 29.167,23.160 29.167 C 23.206 29.167,22.497 28.417,21.583 27.500 C 20.670 26.583,19.885 25.833,19.840 25.833 C 19.794 25.833,20.503 26.583,21.417 27.500 M25.250 31.500 C 25.608 31.867,25.938 32.167,25.984 32.167 C 26.030 32.167,25.775 31.867,25.417 31.500 C 25.059 31.133,24.728 30.833,24.682 30.833 C 24.637 30.833,24.892 31.133,25.250 31.500 M308.060 34.292 C 308.645 35.903,309.552 38.390,310.659 41.417 C 311.129 42.700,312.248 45.775,313.147 48.250 L 314.782 52.750 307.365 52.793 C 303.286 52.817,299.923 52.812,299.893 52.782 C 299.816 52.705,300.133 51.833,302.997 44.250 C 304.382 40.583,305.902 36.552,306.374 35.292 C 307.373 32.622,307.440 32.583,308.060 34.292 M27.826 34.208 C 28.517 34.944,28.667 35.077,28.667 34.951 C 28.667 34.925,28.310 34.568,27.875 34.160 L 27.083 33.417 27.826 34.208 M81.740 35.042 L 81.250 35.583 81.792 35.094 C 82.297 34.638,82.410 34.500,82.281 34.500 C 82.252 34.500,82.009 34.744,81.740 35.042 M46.000 35.052 C 46.000 35.091,46.319 35.333,46.708 35.590 C 47.098 35.846,47.329 35.950,47.221 35.820 C 47.014 35.570,46.000 34.932,46.000 35.052 M30.333 36.917 C 30.831 37.421,31.276 37.833,31.322 37.833 C 31.368 37.833,30.998 37.421,30.500 36.917 C 30.002 36.412,29.557 36.000,29.511 36.000 C 29.466 36.000,29.835 36.412,30.333 36.917 M34.500 41.250 C 34.998 41.754,35.443 42.167,35.489 42.167 C 35.534 42.167,35.165 41.754,34.667 41.250 C 34.169 40.746,33.724 40.333,33.678 40.333 C 33.632 40.333,34.002 40.746,34.500 41.250 M83.385 43.083 C 83.386 43.633,83.417 43.838,83.454 43.539 C 83.491 43.239,83.490 42.789,83.452 42.539 C 83.414 42.288,83.384 42.533,83.385 43.083 M36.167 43.046 C 36.167 43.071,36.748 43.652,37.458 44.338 L 38.750 45.583 37.504 44.292 C 36.347 43.092,36.167 42.924,36.167 43.046 M41.500 48.583 C 42.091 49.179,42.611 49.667,42.657 49.667 C 42.703 49.667,42.257 49.179,41.667 48.583 C 41.076 47.987,40.555 47.500,40.510 47.500 C 40.464 47.500,40.909 47.987,41.500 48.583 M23.250 54.167 C 23.887 54.808,24.445 55.333,24.491 55.333 C 24.537 55.333,24.053 54.808,23.417 54.167 C 22.780 53.525,22.221 53.000,22.176 53.000 C 22.130 53.000,22.613 53.525,23.250 54.167 M46.167 53.385 C 46.167 53.414,46.410 53.658,46.708 53.927 L 47.250 54.417 46.760 53.875 C 46.304 53.370,46.167 53.257,46.167 53.385 M20.194 54.090 C 19.914 54.703,19.968 54.834,20.270 54.277 C 20.411 54.017,20.495 53.773,20.457 53.735 C 20.419 53.696,20.300 53.857,20.194 54.090 M48.833 55.917 C 49.331 56.421,49.776 56.833,49.822 56.833 C 49.868 56.833,49.498 56.421,49.000 55.917 C 48.502 55.413,48.057 55.000,48.011 55.000 C 47.966 55.000,48.335 55.413,48.833 55.917 M9.218 57.750 C 9.219 58.300,9.250 58.505,9.287 58.205 C 9.325 57.906,9.324 57.456,9.286 57.205 C 9.248 56.955,9.217 57.200,9.218 57.750 M29.417 60.167 C 30.973 61.725,32.284 63.000,32.330 63.000 C 32.375 63.000,31.140 61.725,29.583 60.167 C 28.027 58.608,26.716 57.333,26.670 57.333 C 26.625 57.333,27.860 58.608,29.417 60.167 M9.039 61.667 C 9.039 61.987,9.073 62.119,9.115 61.958 C 9.157 61.798,9.157 61.535,9.115 61.375 C 9.073 61.215,9.039 61.346,9.039 61.667 M34.250 64.500 C 34.608 64.867,34.938 65.167,34.984 65.167 C 35.030 65.167,34.775 64.867,34.417 64.500 C 34.059 64.133,33.728 63.833,33.682 63.833 C 33.637 63.833,33.892 64.133,34.250 64.500 M36.000 66.052 C 36.000 66.081,36.244 66.325,36.542 66.594 L 37.083 67.083 36.594 66.542 C 36.138 66.037,36.000 65.923,36.000 66.052 M58.333 66.385 C 58.333 66.414,58.577 66.658,58.875 66.927 L 59.417 67.417 58.927 66.875 C 58.471 66.370,58.333 66.257,58.333 66.385 M60.833 68.750 C 61.144 69.071,61.436 69.333,61.482 69.333 C 61.528 69.333,61.311 69.071,61.000 68.750 C 60.689 68.429,60.397 68.167,60.351 68.167 C 60.305 68.167,60.522 68.429,60.833 68.750 M63.625 70.287 C 63.923 70.324,64.410 70.324,64.708 70.287 C 65.006 70.250,64.762 70.220,64.167 70.220 C 63.571 70.220,63.327 70.250,63.625 70.287 M26.292 80.451 C 26.498 80.491,26.835 80.491,27.042 80.451 C 27.248 80.411,27.079 80.379,26.667 80.379 C 26.254 80.379,26.085 80.411,26.292 80.451 M52.460 81.951 C 52.668 81.991,52.968 81.990,53.127 81.948 C 53.286 81.906,53.117 81.874,52.750 81.875 C 52.383 81.877,52.253 81.911,52.460 81.951 " stroke="none" fill="#040404" fill-rule="evenodd"></path><path id="path2" d="" stroke="none" fill="#c01810" fill-rule="evenodd"></path><path id="path3" d="" stroke="none" fill="#c01810" fill-rule="evenodd"></path><path id="path4" d="" stroke="none" fill="#c01810" fill-rule="evenodd"></path></g></svg>